<svg width="18" height="21" viewBox="0 0 18 21" fill="none" xmlns="http://www.w3.org/2000/svg">
  <path d="M12.0938 7.03125V5.01562C12.0938 4.17188 11.7812 3.45312 11.1562 2.85938C10.5625 2.23438 9.84375 1.92188 9 1.92188C8.15625 1.92188 7.42188 2.23438 6.79688 2.85938C6.20312 3.45312 5.90625 4.17188 5.90625 5.01562V7.03125H12.0938ZM7.59375 15.4219C8 15.8281 8.46875 16.0312 9 16.0312C9.53125 16.0312 10 15.8281 10.4062 15.4219C10.8125 15.0156 11.0156 14.5469 11.0156 14.0156C11.0156 13.4844 10.8125 13.0156 10.4062 12.6094C10 12.2031 9.53125 12 9 12C8.46875 12 8 12.2031 7.59375 12.6094C7.1875 13.0156 6.98438 13.4844 6.98438 14.0156C6.98438 14.5469 7.1875 15.0156 7.59375 15.4219ZM15 7.03125C15.5312 7.03125 16 7.23438 16.4062 7.64062C16.8125 8.01562 17.0156 8.46875 17.0156 9V19.0312C17.0156 19.5625 16.8125 20.0312 16.4062 20.4375C16 20.8125 15.5312 21 15 21H3C2.46875 21 2 20.8125 1.59375 20.4375C1.1875 20.0312 0.984375 19.5625 0.984375 19.0312V9C0.984375 8.46875 1.1875 8.01562 1.59375 7.64062C2 7.23438 2.46875 7.03125 3 7.03125H3.98438V5.01562C3.98438 3.64062 4.46875 2.46875 5.4375 1.5C6.4375 0.5 7.625 0 9 0C10.375 0 11.5469 0.5 12.5156 1.5C13.5156 2.46875 14.0156 3.64062 14.0156 5.01562V7.03125H15Z" fill="white" />
</svg>
