<svg width="18" height="17" viewBox="0 0 18 17" fill="none" xmlns="http://www.w3.org/2000/svg">
<path d="M3.70312 11.1562C5.54688 10.4062 7.3125 10.0312 9 10.0312C10.6875 10.0312 12.4375 10.4062 14.25 11.1562C16.0938 11.875 17.0156 12.8281 17.0156 14.0156V16.0312H0.984375V14.0156C0.984375 12.8281 1.89062 11.875 3.70312 11.1562ZM11.8125 6.84375C11.0312 7.625 10.0938 8.01562 9 8.01562C7.90625 8.01562 6.96875 7.625 6.1875 6.84375C5.40625 6.0625 5.01562 5.125 5.01562 4.03125C5.01562 2.9375 5.40625 2 6.1875 1.21875C6.96875 0.40625 7.90625 0 9 0C10.0938 0 11.0312 0.40625 11.8125 1.21875C12.5938 2 12.9844 2.9375 12.9844 4.03125C12.9844 5.125 12.5938 6.0625 11.8125 6.84375Z" fill="white"/>
</svg>
