<svg width="120" height="23" viewBox="0 0 120 23" fill="none" xmlns="http://www.w3.org/2000/svg">
<path d="M10.2871 17.5215L15.1992 14.6156V8.83887L10.2871 11.7447V17.5215Z" fill="white"/>
<path d="M14.5812 7.70159L9.61757 4.77832L4.72266 7.64907L9.61757 10.5898L14.5812 7.70159Z" fill="white"/>
<path d="M0 5.67151V17.0145L9.61806 22.686L19.2533 17.0145V5.67151L9.61806 0L0 5.67151ZM15.8698 6.94935L16.4709 7.31695V15.4041L10.2879 19.0276L9.63524 19.4127L2.81672 15.3691V7.31695L9.66959 3.29088L15.8698 6.94935Z" fill="white"/>
<path d="M9.00043 11.7105L4.10547 8.80469V14.6513L9.00043 17.5571V11.7105Z" fill="white"/>
<path d="M103.325 3.97363H101.453V14.2314H103.325V3.97363Z" fill="white"/>
<path d="M110.108 10.3799C110.108 11.5702 109.301 12.568 108.15 12.568C106.931 12.568 106.295 11.6577 106.295 10.4849V6.42383H104.406V10.5199C104.406 12.9181 105.729 14.3359 107.566 14.3359C108.648 14.3359 109.37 13.9683 110.16 13.1806L110.28 14.2309H111.98V6.42383H110.108V10.3799Z" fill="white"/>
<path d="M116.343 9.41718C115.364 9.36466 114.917 9.06708 114.917 8.57695C114.917 8.08681 115.415 7.80673 116.308 7.80673C117.047 7.80673 117.665 7.96428 118.198 8.48942L119.28 7.21157C118.404 6.42385 117.494 6.19629 116.308 6.19629C114.917 6.19629 113.079 6.82646 113.079 8.62946C113.079 10.3974 114.797 10.9401 116.24 11.0451C117.322 11.1151 117.751 11.3252 117.751 11.8679C117.751 12.4105 117.064 12.8131 116.36 12.7956C115.518 12.7781 114.265 12.323 113.732 11.7103L112.805 13.0757C113.904 14.266 115.123 14.4761 116.326 14.4761C118.507 14.4761 119.606 13.3033 119.606 11.9204C119.606 9.83729 117.768 9.5047 116.343 9.41718Z" fill="white"/>
<path d="M28.8883 7.50944C28.4589 6.72174 27.4628 6.23161 26.4494 6.23161C24.2167 6.2141 22.4648 7.61447 22.4648 10.2927C22.4648 13.0234 24.1308 14.4588 26.3979 14.4412C27.2395 14.4237 28.4417 13.9861 28.8711 13.0759L28.957 14.2137H30.7432L30.7604 6.42416H28.9398L28.8883 7.50944ZM26.604 12.6733C25.3331 12.6733 24.3369 11.7806 24.3369 10.2927C24.3369 8.80478 25.3674 7.94706 26.604 7.94706C29.5753 7.96456 29.5753 12.6733 26.604 12.6733Z" fill="white"/>
<path d="M38.2314 5.6543L37.51 6.63454C36.9776 6.26695 36.3593 6.19693 35.7581 6.19693C33.6112 6.19693 31.8766 7.70231 31.8766 10.1354C31.8766 12.5685 33.3536 14.0564 35.741 14.0564C36.7028 14.0564 37.6818 14.564 37.6818 15.6318C37.6818 16.6996 36.8402 17.2947 35.741 17.2947C34.6418 17.2947 33.7315 16.612 33.7315 15.6143H31.8594C31.8594 17.7148 33.5082 19.0977 35.7238 19.0977C37.9394 19.0977 39.5539 17.7848 39.5539 15.6318C39.5539 14.6515 39.2447 13.7063 37.9737 13.0586C39.2275 12.481 39.5882 11.1157 39.5882 10.1529C39.6048 9.30814 39.3177 8.48635 38.781 7.84234L39.6226 6.73957L38.2314 5.6543ZM35.7066 12.306C34.6074 12.306 33.7143 11.4833 33.7143 10.1354C33.7143 8.78758 34.6074 7.94737 35.7066 7.92987C36.8058 7.91236 37.6989 8.78758 37.6989 10.1354C37.6989 11.4833 36.8058 12.306 35.7066 12.306Z" fill="white"/>
<path d="M44.8777 4.3409L45.7708 5.26855H47.6945V5.18104L45.4101 2.99316H44.3796L42.0781 5.18104V5.26855H43.9846L44.8777 4.3409Z" fill="white"/>
<path d="M54.0679 6.49363C53.1233 6.49363 52.3333 6.87873 51.5604 7.64894L51.4402 6.37109H49.7398L49.7227 14.3883H51.5947V10.4147C51.5947 9.22436 52.4019 8.22659 53.5527 8.22659C54.7721 8.22659 55.4076 9.13684 55.4076 10.3097V14.4058H57.2968V10.3272C57.2968 7.8765 55.8713 6.49363 54.0679 6.49363Z" fill="white"/>
<path d="M62.4147 12.6727C61.2296 12.6727 60.2506 11.885 60.2506 10.3971C60.2506 9.03179 61.1781 8.08654 62.449 8.08654C63.0206 8.09036 63.5708 8.30844 63.9948 8.6992L65.197 7.42137C64.3383 6.58115 63.5311 6.37109 62.449 6.37109C60.2334 6.37109 58.3613 7.61392 58.3613 10.3796C58.3613 13.1454 60.1991 14.5107 62.4147 14.5107C62.9612 14.5283 63.5053 14.4283 64.0113 14.2172C64.5174 14.006 64.9741 13.6885 65.3516 13.2854L64.0978 12.0251C63.8754 12.2443 63.6114 12.4148 63.3219 12.5262C63.0325 12.6376 62.7237 12.6875 62.4147 12.6727Z" fill="white"/>
<path d="M66.416 14.4409H68.3053L68.3396 6.3886L66.4504 6.37109L66.416 14.4409Z" fill="white"/>
<path d="M75.8102 7.42253C75.3808 6.63482 74.3847 6.14469 73.3713 6.14469C71.1386 6.12719 69.3867 7.52755 69.3867 10.2058C69.3867 12.9365 71.0527 14.3718 73.3198 14.3543C74.1614 14.3368 75.3636 13.8992 75.793 12.989L75.8789 14.1443H77.6651L77.6823 6.35475H75.8617L75.8102 7.42253ZM73.5259 12.6214C72.2549 12.6214 71.2588 11.7286 71.2588 10.2408C71.2588 8.75287 72.2721 7.89515 73.5259 7.89515C76.5144 7.91265 76.4972 12.6214 73.5259 12.6214Z" fill="white"/>
<path d="M68.4781 3.88574H66.2969V5.88135H68.4781V3.88574Z" fill="white"/>
<path d="M84.0049 6.30191C81.5316 6.2844 79.8828 7.82472 79.8828 10.2052C79.8828 12.7082 81.4458 14.3711 84.0736 14.3711C85.2243 14.3711 86.5468 13.951 87.354 13.1108L86.5124 12.1131C86.0831 12.5682 85.1556 12.8308 84.4686 12.8308C83.1289 12.8308 82.1156 12.0956 81.9954 11.1329L87.9551 11.1854C88.2471 7.98226 86.564 6.30191 84.0049 6.30191ZM81.8408 9.45256C81.9735 8.97657 82.2586 8.55949 82.6508 8.26768C83.0429 7.97588 83.5196 7.82612 84.0049 7.84223C85.1041 7.84223 85.8598 8.45486 85.98 9.45256H81.8408Z" fill="white"/>
<path d="M44.6884 6.4064C42.2152 6.38889 40.5664 7.92922 40.5664 10.3097C40.5664 12.8127 42.1293 14.4756 44.7571 14.4756C45.9078 14.4756 47.2303 14.0555 48.0375 13.2153L47.1959 12.2176C46.7666 12.6727 45.8391 12.9353 45.1521 12.9353C43.8125 12.9353 42.7992 12.2001 42.6789 11.2374L48.6386 11.2899C48.9306 8.08675 47.2303 6.4064 44.6884 6.4064ZM42.5415 9.53955C42.6742 9.06356 42.9594 8.64648 43.3515 8.35467C43.7436 8.06287 44.2203 7.9131 44.7056 7.92922C45.8048 7.92922 46.5605 8.54184 46.6807 9.53955H42.5415Z" fill="white"/>
<path d="M96.834 3.84995H91.9219V5.89805H96.834C97.2805 5.89805 98.7061 6.14312 98.7061 7.49101C98.7061 8.83891 97.3836 9.27653 97.3836 9.27653L97.3664 11.3071C97.3664 11.3071 100.664 11.0621 100.664 7.36848C100.664 3.67489 96.834 3.84995 96.834 3.84995Z" fill="white"/>
<path d="M91.9216 9.33008H88.8301V11.3433H91.9216V9.33008Z" fill="white"/>
<path d="M93.794 6.5293H91.9219V9.32991H93.794V11.3429H91.9219V14.3535H93.794V11.3429H96.7653V9.32991H93.794V6.5293Z" fill="white"/>
</svg>
